<svg id="Layer_1" data-name="Layer 1" xmlns="http://www.w3.org/2000/svg" width="320" height="65" viewBox="0 0 320 65">
  <defs>
    <style>
      .cls-1 {
        fill: #2c3b6d;
      }
    </style>
  </defs>
  <title>logo</title>
  <g>
    <path class="cls-1" d="M27.8,23.2h-9v.1H15.1L13,40.5H34.1l2.6-21.3H52.4l1.2-9.4H25.3a1.6,1.6,0,0,0-1.5,1.3A1.18,1.18,0,0,0,25,12.4h4.1a4.69,4.69,0,0,1,4.8,5.4A6.32,6.32,0,0,1,27.8,23.2Z"/>
    <path class="cls-1" d="M12.9,19H28.3a1.6,1.6,0,0,0,1.5-1.3,1.18,1.18,0,0,0-1.2-1.3H24.5A4.69,4.69,0,0,1,19.7,11a6.32,6.32,0,0,1,6.1-5.4H54.1l.5-4.4H2.2L0,19.1,11,19Z"/>
    <path class="cls-1" d="M76.8,32.3c1.2-10.1-10.2-7.7-9.6-12.9.3-2.1,2.5-3.1,4.7-3.1a12.46,12.46,0,0,1,5.4,1.5l.9-5.3a28.42,28.42,0,0,0-6.6-1c-9.5,0-10.2,7.2-10.3,8.1C60.1,29.7,71.6,27,70.9,32.5c-.3,2.3-3,3.4-5.1,3.4-2.5,0-4.1-.9-6-1.7l-1,5.5a24.33,24.33,0,0,0,7.5,1.2C72,40.9,76.1,37.7,76.8,32.3Z"/>
    <path class="cls-1" d="M86.4,40.9c6.1,0,9.6-4.8,10.4-11.1s-1.6-11.1-7.7-11.1-9.6,4.8-10.4,11.1S80.3,40.8,86.4,40.9ZM83.9,29.8c.5-4.1,1.9-7.5,4.9-7.4s3.5,3.3,3,7.4-2,7.4-4.9,7.4S83.4,33.9,83.9,29.8Z"/>
    <path class="cls-1" d="M105.2,19.1h-5L98.5,32.7c-.6,5.3,2,8.1,6.8,8.1s8.2-2.8,8.8-8.1l1.7-13.6h-5L109,33.5c-.2,2.2-1.2,3.5-3.2,3.5s-2.7-1.4-2.4-3.5Z"/>
    <polygon class="cls-1" points="132.3 40.4 134.9 19.1 130.5 19.1 128.6 33.9 124.2 19.1 118.4 19.1 115.7 40.4 120.1 40.4 122.1 25 126.3 40.4 132.3 40.4"/>
    <path class="cls-1" d="M141.9,40.4c5.4,0,10.6-3.1,11.5-10.5,1-8.1-3.4-10.9-8.2-10.9h-7.6L135,40.4Zm.3-17.6h1.3c3.9,0,5.2,2.7,4.7,7.1-.5,3.9-2.5,6.8-6.1,6.8h-1.6Z"/>
    <polygon class="cls-1" points="196.2 63.8 198.1 49.6 194.8 49.6 192.9 63.8 196.2 63.8"/>
    <polygon class="cls-1" points="214.6 49.6 212.7 63.8 221.1 63.8 221.4 61.4 216.3 61.4 216.8 57.7 221.4 57.7 221.7 55.4 217.1 55.4 217.6 51.9 222.4 51.9 222.8 49.6 214.6 49.6"/>
    <polygon class="cls-1" points="235.7 52.1 238.9 52.1 239.2 49.6 229.7 49.6 229.3 52.1 232.4 52.1 230.9 63.8 234.2 63.8 235.7 52.1"/>
    <polygon class="cls-1" points="249.1 63.8 251 49.6 247.7 49.6 247 55.2 243.5 55.2 244.2 49.6 241 49.6 239.1 63.8 242.4 63.8 243.2 57.8 246.6 57.8 245.8 63.8 249.1 63.8"/>
    <polygon class="cls-1" points="253.8 49.6 252 63.8 260.3 63.8 260.6 61.4 255.6 61.4 256 57.7 260.6 57.7 260.9 55.4 256.4 55.4 256.8 51.9 261.7 51.9 262 49.6 253.8 49.6"/>
    <polygon class="cls-1" points="281.3 63.8 285.9 49.6 283 49.6 279.7 60.4 279.4 49.6 275.5 49.6 272.5 60.4 272 49.6 268.9 49.6 269.9 63.8 273.8 63.8 277 52.4 277.4 63.8 281.3 63.8"/>
    <path class="cls-1" d="M297,63.9l-2.5-14.3h-3.9l-6.5,14.3h3.2l1.3-3.2h4.6l.4,3.2Zm-7.3-5.7,2.4-5.8.8,5.8Z"/>
    <polygon class="cls-1" points="304.3 63.8 310.4 49.6 307.3 49.6 303 60.3 301.9 49.6 298.4 49.6 300.8 63.8 304.3 63.8"/>
    <polygon class="cls-1" points="311.9 49.6 310 63.8 318.3 63.8 318.7 61.4 313.6 61.4 314.1 57.7 318.7 57.7 319 55.4 314.4 55.4 314.8 51.9 319.7 51.9 320 49.6 311.9 49.6"/>
    <polygon class="cls-1" points="153.4 17.2 159.5 17.2 156.7 40.4 162.4 40.4 165.2 17.2 171.4 17.2 172 12 154 12 153.4 17.2"/>
    <path class="cls-1" d="M183.6,40.4h4.8l2.1-4.8h6.7l.7,4.8H203L198.8,19h-5.5Zm11.9-17.3,1.1,8.9h-4.8Z"/>
    <polygon class="cls-1" points="206.5 19.1 203.9 40.4 208.3 40.4 210.3 25 214.5 40.4 220.4 40.4 223.1 19.1 218.7 19.1 216.8 33.9 212.4 19.1 206.5 19.1"/>
    <polygon class="cls-1" points="241 19.1 238.4 40.4 243.4 40.4 246 19.1 241 19.1"/>
    <polygon class="cls-1" points="247.3 19.1 246.8 22.9 251.5 22.9 249.3 40.4 254.4 40.4 256.5 22.9 261.2 22.9 261.6 19.1 247.3 19.1"/>
    <polygon class="cls-1" points="168.5 40.4 168.51 40.3 168.5 40.3 168.5 40.4"/>
    <path class="cls-1" d="M178.9,19h-7.8l-2.59,21.3h4.79l1.1-8.6c1.9,0,2.5,0,3,2.9l.9,5.7h5.3l-1.3-7c-.5-2.5-1-3.4-2.5-3.6a5.78,5.78,0,0,0,4.9-5.2C185.2,20.6,182.4,19,178.9,19Zm.8,6.4a3.2,3.2,0,0,1-3.3,2.8h-1.6l.7-5.5h1.6C179.8,22.7,179.8,24.5,179.7,25.4Z"/>
    <path class="cls-1" d="M228.3,37a10.76,10.76,0,0,1-4.5-1.3l-.8,4.2a17.6,17.6,0,0,0,5.6.9c4.3,0,7.8-2.5,8.3-6.5,1-7.6-7.7-5.8-7.2-9.7.2-1.6,1.5-2.3,3.1-2.3a9.26,9.26,0,0,1,4.1,1.1l.7-4a20,20,0,0,0-4.9-.7c-7.2,0-8.1,5.5-8.2,6.1-1,7.6,7.7,5.6,7.2,9.7C231.5,36.2,229.9,37,228.3,37Z"/>
    <path class="cls-1" d="M202.7,63.9c5,0,7.9-2.5,8.6-7.1.6-4.9-1.5-7.1-6.7-7.1H201v-.1l-1.9,14.3Zm1.3-12h.4c2.8,0,3.9,1.5,3.5,4.8s-2,4.7-4.7,4.7h-.4Z"/>
    <path class="cls-1" d="M185,58h.6c1.1,0,1.3.5,1.5,1.8l.6,4.1h3.4l-.9-4.8c-.3-1.3-.5-2-1.5-2.3a3.72,3.72,0,0,0,3.1-3.4c.4-2.8-1.2-3.8-4.7-3.8h-4.2L181,63.8h3.2Zm.8-6.1h.7c1.6,0,2.2.4,2,1.9-.2,1.3-1,1.8-2.5,1.8h-.7Z"/>
  </g>
</svg>
